<?xml version="1.0" encoding="UTF-8" standalone="no"?>
<svg
   xmlns:dc="http://purl.org/dc/elements/1.1/"
   xmlns:cc="http://creativecommons.org/ns#"
   xmlns:rdf="http://www.w3.org/1999/02/22-rdf-syntax-ns#"
   xmlns:svg="http://www.w3.org/2000/svg"
   xmlns="http://www.w3.org/2000/svg"
   xmlns:sodipodi="http://sodipodi.sourceforge.net/DTD/sodipodi-0.dtd"
   xmlns:inkscape="http://www.inkscape.org/namespaces/inkscape"
   data-v-423bf9ae=""
   viewBox="0 0 373 90"
   class="iconLeft"
   version="1.1"
   id="svg10"
   sodipodi:docname="logo.svg"
   inkscape:export-filename="C:\Users\Lucas\Documents\projects\pagina-exodus\src\images\logo.png"
   inkscape:export-xdpi="96"
   inkscape:export-ydpi="96"
   inkscape:version="1.0.1 (3bc2e813f5, 2020-09-07)">
  <metadata
     id="metadata16">
    <rdf:RDF>
      <cc:Work
         rdf:about="">
        <dc:format>image/svg+xml</dc:format>
        <dc:type
           rdf:resource="http://purl.org/dc/dcmitype/StillImage" />
        <dc:title></dc:title>
      </cc:Work>
    </rdf:RDF>
  </metadata>
  <defs
     id="defs14" />
  <sodipodi:namedview
     pagecolor="#ffffff"
     bordercolor="#666666"
     borderopacity="1"
     objecttolerance="10"
     gridtolerance="10"
     guidetolerance="10"
     inkscape:pageopacity="0"
     inkscape:pageshadow="2"
     inkscape:window-width="1920"
     inkscape:window-height="1017"
     id="namedview12"
     showgrid="false"
     inkscape:zoom="3.691689"
     inkscape:cx="186.5"
     inkscape:cy="55.835149"
     inkscape:window-x="-8"
     inkscape:window-y="-8"
     inkscape:window-maximized="1"
     inkscape:current-layer="svg10" />
  <!---->
  <!---->
  <!---->
  <g
     data-v-423bf9ae=""
     id="5fa2a54a-8f40-4a93-a118-64a94faf8e87"
     fill="white"
     transform="matrix(5.7915059834320255,0,0,5.7915059834320255,101.54440407882282,-1.2162162390305653)">
    <path
       d="M2.16 12.38L7.99 12.38L7.99 13.02L1.46 13.02L1.46 3.78L7.77 3.78L7.77 4.42L2.16 4.42L2.16 7.99L6.59 7.99L6.59 8.65L2.16 8.65L2.16 12.38ZM15.32 13.02L14.43 13.02L12.07 9.95L9.74 13.02L8.90 13.02L11.68 9.44L9.04 6.02L9.94 6.02L12.14 8.88L14.27 6.02L15.11 6.02L12.53 9.39L15.32 13.02ZM19.46 5.88L19.46 5.88Q21.01 5.88 21.90 6.85L21.90 6.85L21.90 6.85Q22.79 7.83 22.79 9.52L22.79 9.52L22.79 9.52Q22.79 11.21 21.90 12.19L21.90 12.19L21.90 12.19Q21.01 13.16 19.46 13.16L19.46 13.16L19.46 13.16Q17.91 13.16 17.02 12.19L17.02 12.19L17.02 12.19Q16.13 11.21 16.13 9.52L16.13 9.52L16.13 9.52Q16.13 7.83 17.02 6.85L17.02 6.85L17.02 6.85Q17.91 5.88 19.46 5.88L19.46 5.88ZM19.46 6.48L19.46 6.48Q18.23 6.48 17.53 7.29L17.53 7.29L17.53 7.29Q16.83 8.11 16.83 9.52L16.83 9.52L16.83 9.52Q16.83 10.93 17.53 11.75L17.53 11.75L17.53 11.75Q18.23 12.56 19.46 12.56L19.46 12.56L19.46 12.56Q20.69 12.56 21.39 11.75L21.39 11.75L21.39 11.75Q22.09 10.93 22.09 9.52L22.09 9.52L22.09 9.52Q22.09 8.11 21.39 7.29L21.39 7.29L21.39 7.29Q20.69 6.48 19.46 6.48L19.46 6.48ZM30.17 2.80L30.87 2.80L30.87 13.02L30.24 13.02L30.20 11.45L30.20 11.45Q29.90 12.25 29.22 12.71L29.22 12.71L29.22 12.71Q28.53 13.16 27.59 13.16L27.59 13.16L27.59 13.16Q26.11 13.16 25.25 12.19L25.25 12.19L25.25 12.19Q24.39 11.23 24.39 9.52L24.39 9.52L24.39 9.52Q24.39 7.81 25.25 6.85L25.25 6.85L25.25 6.85Q26.11 5.88 27.59 5.88L27.59 5.88L27.59 5.88Q28.50 5.88 29.18 6.31L29.18 6.31L29.18 6.31Q29.85 6.75 30.17 7.50L30.17 7.50L30.17 2.80ZM27.68 12.54L27.68 12.54Q28.77 12.54 29.44 11.81L29.44 11.81L29.44 11.81Q30.11 11.07 30.17 9.81L30.17 9.81L30.17 9.23L30.17 9.23Q30.10 7.97 29.43 7.23L29.43 7.23L29.43 7.23Q28.77 6.50 27.68 6.50L27.68 6.50L27.68 6.50Q26.46 6.50 25.77 7.30L25.77 7.30L25.77 7.30Q25.09 8.11 25.09 9.52L25.09 9.52L25.09 9.52Q25.09 10.93 25.77 11.74L25.77 11.74L25.77 11.74Q26.46 12.54 27.68 12.54L27.68 12.54ZM38.47 6.02L39.17 6.02L39.17 13.02L38.54 13.02L38.51 11.63L38.51 11.63Q38.16 12.38 37.46 12.77L37.46 12.77L37.46 12.77Q36.76 13.16 35.81 13.16L35.81 13.16L35.81 13.16Q34.66 13.16 33.98 12.52L33.98 12.52L33.98 12.52Q33.29 11.89 33.29 10.64L33.29 10.64L33.29 6.02L33.99 6.02L33.99 10.47L33.99 10.47Q33.99 12.54 35.92 12.54L35.92 12.54L35.92 12.54Q36.69 12.54 37.27 12.21L37.27 12.21L37.27 12.21Q37.86 11.87 38.16 11.30L38.16 11.30L38.16 11.30Q38.47 10.72 38.47 10.04L38.47 10.04L38.47 6.02ZM43.95 13.16L43.95 13.16Q42.88 13.16 42.10 12.74L42.10 12.74L42.10 12.74Q41.31 12.32 41.02 11.52L41.02 11.52L41.59 11.14L41.59 11.14Q41.80 11.84 42.45 12.19L42.45 12.19L42.45 12.19Q43.09 12.54 44.03 12.54L44.03 12.54L44.03 12.54Q44.98 12.54 45.52 12.18L45.52 12.18L45.52 12.18Q46.06 11.82 46.06 11.21L46.06 11.21L46.06 11.21Q46.06 10.70 45.60 10.39L45.60 10.39L45.60 10.39Q45.14 10.08 43.97 9.87L43.97 9.87L43.97 9.87Q42.50 9.60 41.90 9.16L41.90 9.16L41.90 9.16Q41.30 8.71 41.30 7.88L41.30 7.88L41.30 7.88Q41.30 7.34 41.64 6.87L41.64 6.87L41.64 6.87Q41.97 6.41 42.59 6.15L42.59 6.15L42.59 6.15Q43.20 5.88 43.99 5.88L43.99 5.88L43.99 5.88Q45.09 5.88 45.76 6.30L45.76 6.30L45.76 6.30Q46.42 6.72 46.68 7.59L46.68 7.59L46.07 7.94L46.07 7.94Q45.68 6.50 43.99 6.50L43.99 6.50L43.99 6.50Q43.43 6.50 42.97 6.68L42.97 6.68L42.97 6.68Q42.52 6.86 42.26 7.16L42.26 7.16L42.26 7.16Q42 7.46 42 7.81L42 7.81L42 7.81Q42 8.39 42.48 8.71L42.48 8.71L42.48 8.71Q42.95 9.03 44.16 9.24L44.16 9.24L44.16 9.24Q45.58 9.48 46.17 9.93L46.17 9.93L46.17 9.93Q46.76 10.37 46.76 11.19L46.76 11.19L46.76 11.19Q46.76 12.08 46.00 12.62L46.00 12.62L46.00 12.62Q45.23 13.16 43.95 13.16L43.95 13.16Z"
       id="path2" />
  </g>
  <!---->
  <g
     data-v-423bf9ae=""
     id="58f518d9-1cc8-4906-86c0-3d8d9ab39f29"
     transform="matrix(2.8125,0,0,2.8125,0,0)"
     stroke="none"
     fill="white">
    <path
       d="M29.625 1l-3.099 3.172H4.054v23.657h22.472L29.625 31H1V1h28.625M32 0H0v32h32l-5.054-5.172H5.054V5.172h21.893L32 0z"
       id="path5" />
    <path
       d="M21.038 10.962v10.076H10.962V10.962h10.076m1-1H9.962v12.076h12.076V9.962z"
       id="path7" />
  </g>
  <!---->
</svg>
